<svg width="175" height="32" viewBox="0 0 175 32" fill="none" xmlns="http://www.w3.org/2000/svg">
<path d="M12.9128 5.50403L4 5.50391V25.5039L16.9131 25.504V19.504H13.9131L12.9128 5.50403Z" stroke="#1C1917" stroke-width="2.5"/>
<path d="M24.9131 23.4079V20.8639H27.1211V9.19991H24.9131V6.65591H32.5211V9.19991H30.2891V20.8639H32.5211V23.4079H24.9131Z" fill="#1C1917"/>
<path d="M35.5655 23.4079V10.8799H38.6375V12.9679H38.7575C39.0135 12.2959 39.4135 11.7359 39.9575 11.2879C40.5175 10.8239 41.2855 10.5919 42.2615 10.5919C43.5575 10.5919 44.5495 11.0159 45.2375 11.8639C45.9255 12.7119 46.2695 13.9199 46.2695 15.4879V23.4079H43.1975V15.7999C43.1975 14.9039 43.0375 14.2319 42.7175 13.7839C42.3975 13.3359 41.8695 13.1119 41.1335 13.1119C40.8135 13.1119 40.5015 13.1599 40.1975 13.2559C39.9095 13.3359 39.6455 13.4639 39.4055 13.6399C39.1815 13.7999 38.9975 14.0079 38.8535 14.2639C38.7095 14.5039 38.6375 14.7919 38.6375 15.1279V23.4079H35.5655Z" fill="#1C1917"/>
<path d="M52.7469 23.4079C51.6909 23.4079 50.9149 23.1439 50.4189 22.6159C49.9229 22.0879 49.6749 21.3439 49.6749 20.3839V5.64791H52.7469V20.9599H54.4029V23.4079H52.7469Z" fill="#1C1917"/>
<path d="M61.6976 23.6959C60.8016 23.6959 59.9936 23.5439 59.2736 23.2399C58.5696 22.9359 57.9616 22.4959 57.4496 21.9199C56.9536 21.3439 56.5696 20.6559 56.2976 19.8559C56.0256 19.0399 55.8896 18.1279 55.8896 17.1199C55.8896 16.1119 56.0256 15.2079 56.2976 14.4079C56.5696 13.6079 56.9536 12.9279 57.4496 12.3679C57.9616 11.7919 58.5696 11.3519 59.2736 11.0479C59.9936 10.7439 60.8016 10.5919 61.6976 10.5919C62.5936 10.5919 63.4016 10.7439 64.1216 11.0479C64.8416 11.3519 65.4496 11.7919 65.9456 12.3679C66.4576 12.9279 66.8496 13.6079 67.1216 14.4079C67.3936 15.2079 67.5296 16.1119 67.5296 17.1199C67.5296 18.1279 67.3936 19.0399 67.1216 19.8559C66.8496 20.6559 66.4576 21.3439 65.9456 21.9199C65.4496 22.4959 64.8416 22.9359 64.1216 23.2399C63.4016 23.5439 62.5936 23.6959 61.6976 23.6959ZM61.6976 21.2239C62.5136 21.2239 63.1536 20.9759 63.6176 20.4799C64.0816 19.9839 64.3136 19.2559 64.3136 18.2959V15.9679C64.3136 15.0239 64.0816 14.3039 63.6176 13.8079C63.1536 13.3119 62.5136 13.0639 61.6976 13.0639C60.8976 13.0639 60.2656 13.3119 59.8016 13.8079C59.3376 14.3039 59.1056 15.0239 59.1056 15.9679V18.2959C59.1056 19.2559 59.3376 19.9839 59.8016 20.4799C60.2656 20.9759 60.8976 21.2239 61.6976 21.2239Z" fill="#1C1917"/>
<path d="M81.557 24.4639C81.557 25.1199 81.437 25.6959 81.197 26.1919C80.973 26.7039 80.597 27.1279 80.069 27.4639C79.541 27.7999 78.861 28.0559 78.029 28.2319C77.197 28.4079 76.181 28.4959 74.981 28.4959C73.925 28.4959 73.029 28.4239 72.293 28.2799C71.557 28.1519 70.949 27.9599 70.469 27.7039C70.005 27.4639 69.669 27.1599 69.461 26.7919C69.253 26.4239 69.149 26.0079 69.149 25.5439C69.149 24.8399 69.341 24.2879 69.725 23.8879C70.125 23.5039 70.677 23.2559 71.381 23.1439V22.8799C70.869 22.7519 70.469 22.5039 70.181 22.1359C69.909 21.7519 69.773 21.3039 69.773 20.7919C69.773 20.4719 69.837 20.1919 69.965 19.9519C70.093 19.6959 70.261 19.4799 70.469 19.3039C70.693 19.1279 70.941 18.9839 71.213 18.8719C71.485 18.7439 71.773 18.6479 72.077 18.5839V18.4879C71.309 18.1359 70.733 17.6479 70.349 17.0239C69.981 16.3999 69.797 15.6719 69.797 14.8399C69.797 13.5599 70.237 12.5359 71.117 11.7679C71.997 10.9839 73.285 10.5919 74.981 10.5919C75.365 10.5919 75.741 10.6159 76.109 10.6639C76.493 10.7119 76.845 10.7919 77.165 10.9039V10.4959C77.165 9.27991 77.757 8.67191 78.941 8.67191H80.885V11.0239H78.221V11.3599C78.877 11.7279 79.365 12.2079 79.685 12.7999C80.005 13.3919 80.165 14.0719 80.165 14.8399C80.165 16.1039 79.725 17.1199 78.845 17.8879C77.981 18.6559 76.693 19.0399 74.981 19.0399C74.245 19.0399 73.605 18.9679 73.061 18.8239C72.821 18.9359 72.613 19.0879 72.437 19.2799C72.261 19.4559 72.173 19.6799 72.173 19.9519C72.173 20.5759 72.717 20.8879 73.805 20.8879H77.165C78.701 20.8879 79.813 21.2079 80.501 21.8479C81.205 22.4719 81.557 23.3439 81.557 24.4639ZM78.677 24.8239C78.677 24.4239 78.517 24.1119 78.197 23.8879C77.877 23.6639 77.325 23.5519 76.541 23.5519H72.269C71.837 23.8719 71.621 24.3039 71.621 24.8479C71.621 25.3279 71.821 25.7039 72.221 25.9759C72.621 26.2479 73.301 26.3839 74.261 26.3839H75.797C76.805 26.3839 77.533 26.2559 77.981 25.9999C78.445 25.7439 78.677 25.3519 78.677 24.8239ZM74.981 16.9519C76.485 16.9519 77.237 16.3119 77.237 15.0319V14.6239C77.237 13.3439 76.485 12.7039 74.981 12.7039C73.477 12.7039 72.725 13.3439 72.725 14.6239V15.0319C72.725 16.3119 73.477 16.9519 74.981 16.9519Z" fill="#1C1917"/>
<path d="M94.7758 24.4639C94.7758 25.1199 94.6558 25.6959 94.4158 26.1919C94.1918 26.7039 93.8158 27.1279 93.2878 27.4639C92.7598 27.7999 92.0798 28.0559 91.2478 28.2319C90.4158 28.4079 89.3998 28.4959 88.1998 28.4959C87.1438 28.4959 86.2478 28.4239 85.5118 28.2799C84.7758 28.1519 84.1678 27.9599 83.6878 27.7039C83.2238 27.4639 82.8878 27.1599 82.6798 26.7919C82.4718 26.4239 82.3678 26.0079 82.3678 25.5439C82.3678 24.8399 82.5598 24.2879 82.9438 23.8879C83.3438 23.5039 83.8958 23.2559 84.5998 23.1439V22.8799C84.0878 22.7519 83.6878 22.5039 83.3998 22.1359C83.1278 21.7519 82.9918 21.3039 82.9918 20.7919C82.9918 20.4719 83.0558 20.1919 83.1838 19.9519C83.3118 19.6959 83.4798 19.4799 83.6878 19.3039C83.9118 19.1279 84.1598 18.9839 84.4318 18.8719C84.7038 18.7439 84.9918 18.6479 85.2958 18.5839V18.4879C84.5278 18.1359 83.9518 17.6479 83.5678 17.0239C83.1998 16.3999 83.0158 15.6719 83.0158 14.8399C83.0158 13.5599 83.4558 12.5359 84.3358 11.7679C85.2158 10.9839 86.5038 10.5919 88.1998 10.5919C88.5838 10.5919 88.9598 10.6159 89.3278 10.6639C89.7118 10.7119 90.0638 10.7919 90.3838 10.9039V10.4959C90.3838 9.27991 90.9758 8.67191 92.1598 8.67191H94.1038V11.0239H91.4398V11.3599C92.0958 11.7279 92.5838 12.2079 92.9038 12.7999C93.2238 13.3919 93.3838 14.0719 93.3838 14.8399C93.3838 16.1039 92.9438 17.1199 92.0638 17.8879C91.1998 18.6559 89.9118 19.0399 88.1998 19.0399C87.4638 19.0399 86.8238 18.9679 86.2798 18.8239C86.0398 18.9359 85.8318 19.0879 85.6558 19.2799C85.4798 19.4559 85.3918 19.6799 85.3918 19.9519C85.3918 20.5759 85.9358 20.8879 87.0238 20.8879H90.3838C91.9198 20.8879 93.0318 21.2079 93.7198 21.8479C94.4238 22.4719 94.7758 23.3439 94.7758 24.4639ZM91.8958 24.8239C91.8958 24.4239 91.7358 24.1119 91.4158 23.8879C91.0958 23.6639 90.5438 23.5519 89.7598 23.5519H85.4878C85.0558 23.8719 84.8398 24.3039 84.8398 24.8479C84.8398 25.3279 85.0398 25.7039 85.4398 25.9759C85.8398 26.2479 86.5198 26.3839 87.4798 26.3839H89.0158C90.0238 26.3839 90.7518 26.2559 91.1998 25.9999C91.6638 25.7439 91.8958 25.3519 91.8958 24.8239ZM88.1998 16.9519C89.7038 16.9519 90.4558 16.3119 90.4558 15.0319V14.6239C90.4558 13.3439 89.7038 12.7039 88.1998 12.7039C86.6958 12.7039 85.9438 13.3439 85.9438 14.6239V15.0319C85.9438 16.3119 86.6958 16.9519 88.1998 16.9519Z" fill="#1C1917"/>
<path d="M96.5499 23.4079V10.8799H99.6219V12.9679H99.7419C99.9979 12.2959 100.398 11.7359 100.942 11.2879C101.502 10.8239 102.27 10.5919 103.246 10.5919C104.542 10.5919 105.534 11.0159 106.222 11.8639C106.91 12.7119 107.254 13.9199 107.254 15.4879V23.4079H104.182V15.7999C104.182 14.9039 104.022 14.2319 103.702 13.7839C103.382 13.3359 102.854 13.1119 102.118 13.1119C101.798 13.1119 101.486 13.1599 101.182 13.2559C100.894 13.3359 100.63 13.4639 100.39 13.6399C100.166 13.7999 99.9819 14.0079 99.8379 14.2639C99.6939 14.5039 99.6219 14.7919 99.6219 15.1279V23.4079H96.5499Z" fill="#1C1917"/>
<path d="M112.195 9.05591C111.555 9.05591 111.091 8.91191 110.803 8.62391C110.531 8.33591 110.395 7.96791 110.395 7.51991V7.03991C110.395 6.59191 110.531 6.22391 110.803 5.93591C111.091 5.64791 111.555 5.50391 112.195 5.50391C112.819 5.50391 113.275 5.64791 113.563 5.93591C113.851 6.22391 113.995 6.59191 113.995 7.03991V7.51991C113.995 7.96791 113.851 8.33591 113.563 8.62391C113.275 8.91191 112.819 9.05591 112.195 9.05591ZM110.659 10.8799H113.731V23.4079H110.659V10.8799Z" fill="#1C1917"/>
<path d="M117.292 23.4079V10.8799H120.364V12.9679H120.484C120.74 12.2959 121.14 11.7359 121.684 11.2879C122.244 10.8239 123.012 10.5919 123.988 10.5919C125.284 10.5919 126.276 11.0159 126.964 11.8639C127.652 12.7119 127.996 13.9199 127.996 15.4879V23.4079H124.924V15.7999C124.924 14.9039 124.764 14.2319 124.444 13.7839C124.124 13.3359 123.596 13.1119 122.86 13.1119C122.54 13.1119 122.228 13.1599 121.924 13.2559C121.636 13.3359 121.372 13.4639 121.132 13.6399C120.908 13.7999 120.724 14.0079 120.58 14.2639C120.436 14.5039 120.364 14.7919 120.364 15.1279V23.4079H117.292Z" fill="#1C1917"/>
<path d="M142.705 24.4639C142.705 25.1199 142.585 25.6959 142.345 26.1919C142.121 26.7039 141.745 27.1279 141.217 27.4639C140.689 27.7999 140.009 28.0559 139.177 28.2319C138.345 28.4079 137.329 28.4959 136.129 28.4959C135.073 28.4959 134.177 28.4239 133.441 28.2799C132.705 28.1519 132.097 27.9599 131.617 27.7039C131.153 27.4639 130.817 27.1599 130.609 26.7919C130.401 26.4239 130.297 26.0079 130.297 25.5439C130.297 24.8399 130.489 24.2879 130.873 23.8879C131.273 23.5039 131.825 23.2559 132.529 23.1439V22.8799C132.017 22.7519 131.617 22.5039 131.329 22.1359C131.057 21.7519 130.921 21.3039 130.921 20.7919C130.921 20.4719 130.985 20.1919 131.113 19.9519C131.241 19.6959 131.409 19.4799 131.617 19.3039C131.841 19.1279 132.089 18.9839 132.361 18.8719C132.633 18.7439 132.921 18.6479 133.225 18.5839V18.4879C132.457 18.1359 131.881 17.6479 131.497 17.0239C131.129 16.3999 130.945 15.6719 130.945 14.8399C130.945 13.5599 131.385 12.5359 132.265 11.7679C133.145 10.9839 134.433 10.5919 136.129 10.5919C136.513 10.5919 136.889 10.6159 137.257 10.6639C137.641 10.7119 137.993 10.7919 138.313 10.9039V10.4959C138.313 9.27991 138.905 8.67191 140.089 8.67191H142.033V11.0239H139.369V11.3599C140.025 11.7279 140.513 12.2079 140.833 12.7999C141.153 13.3919 141.313 14.0719 141.313 14.8399C141.313 16.1039 140.873 17.1199 139.993 17.8879C139.129 18.6559 137.841 19.0399 136.129 19.0399C135.393 19.0399 134.753 18.9679 134.209 18.8239C133.969 18.9359 133.761 19.0879 133.585 19.2799C133.409 19.4559 133.321 19.6799 133.321 19.9519C133.321 20.5759 133.865 20.8879 134.953 20.8879H138.313C139.849 20.8879 140.961 21.2079 141.649 21.8479C142.353 22.4719 142.705 23.3439 142.705 24.4639ZM139.825 24.8239C139.825 24.4239 139.665 24.1119 139.345 23.8879C139.025 23.6639 138.473 23.5519 137.689 23.5519H133.417C132.985 23.8719 132.769 24.3039 132.769 24.8479C132.769 25.3279 132.969 25.7039 133.369 25.9759C133.769 26.2479 134.449 26.3839 135.409 26.3839H136.945C137.953 26.3839 138.681 26.2559 139.129 25.9999C139.593 25.7439 139.825 25.3519 139.825 24.8239ZM136.129 16.9519C137.633 16.9519 138.385 16.3119 138.385 15.0319V14.6239C138.385 13.3439 137.633 12.7039 136.129 12.7039C134.625 12.7039 133.873 13.3439 133.873 14.6239V15.0319C133.873 16.3119 134.625 16.9519 136.129 16.9519Z" fill="#1C1917"/>
<path d="M146.016 9.05591C145.376 9.05591 144.912 8.91191 144.624 8.62391C144.352 8.33591 144.216 7.96791 144.216 7.51991V7.03991C144.216 6.59191 144.352 6.22391 144.624 5.93591C144.912 5.64791 145.376 5.50391 146.016 5.50391C146.64 5.50391 147.096 5.64791 147.384 5.93591C147.672 6.22391 147.816 6.59191 147.816 7.03991V7.51991C147.816 7.96791 147.672 8.33591 147.384 8.62391C147.096 8.91191 146.64 9.05591 146.016 9.05591ZM144.48 10.8799H147.552V23.4079H144.48V10.8799Z" fill="#1C1917"/>
<path d="M151.736 13.3039H149.888V10.8799H151.736V9.07991C151.736 7.97591 152.024 7.12791 152.6 6.53591C153.192 5.94391 154.056 5.64791 155.192 5.64791H157.376V8.09591H154.808V10.8799H157.376V13.3039H154.808V23.4079H151.736V13.3039Z" fill="#1C1917"/>
<path d="M167.417 10.8799H170.297L165.257 25.6399C165.097 26.0879 164.913 26.4719 164.705 26.7919C164.513 27.1279 164.281 27.3999 164.009 27.6079C163.737 27.8159 163.409 27.9679 163.025 28.0639C162.641 28.1599 162.193 28.2079 161.681 28.2079H159.833V25.7599H162.089L162.665 24.0079L158.177 10.8799H161.225L163.409 17.5039L164.225 20.6719H164.369L165.233 17.5039L167.417 10.8799Z" fill="#1C1917"/>
</svg>
